<?xml version="1.0" encoding="UTF-8" standalone="no"?>
<!-- Created with Inkscape (http://www.inkscape.org/) -->

<svg
   width="256"
   height="256"
   viewBox="0 0 512 512"
   version="1.1"
   id="SVGRoot"
   sodipodi:docname="copy_light.svg"
   inkscape:version="1.2.1 (9c6d41e410, 2022-07-14)"
   inkscape:export-filename="copy_light.png"
   inkscape:export-xdpi="96"
   inkscape:export-ydpi="96"
   xml:space="preserve"
   xmlns:inkscape="http://www.inkscape.org/namespaces/inkscape"
   xmlns:sodipodi="http://sodipodi.sourceforge.net/DTD/sodipodi-0.dtd"
   xmlns="http://www.w3.org/2000/svg"
   xmlns:svg="http://www.w3.org/2000/svg"><sodipodi:namedview
     id="namedview14"
     pagecolor="#505050"
     bordercolor="#eeeeee"
     borderopacity="1"
     inkscape:pageshadow="0"
     inkscape:pageopacity="0"
     inkscape:pagecheckerboard="false"
     inkscape:document-units="px"
     showgrid="true"
     inkscape:zoom="2.02"
     inkscape:cx="195.0495"
     inkscape:cy="107.67327"
     inkscape:window-width="1920"
     inkscape:window-height="1008"
     inkscape:window-x="0"
     inkscape:window-y="48"
     inkscape:window-maximized="1"
     inkscape:current-layer="layer1"
     inkscape:showpageshadow="false"
     inkscape:deskcolor="#505050"><inkscape:grid
       type="xygrid"
       id="grid20"
       originx="-111.8571"
       originy="-115.71941" /></sodipodi:namedview><defs
     id="defs9"><inkscape:path-effect
       effect="skeletal"
       id="path-effect1021"
       is_visible="true"
       lpeversion="1"
       pattern="M 0,18.867925 C 0,8.4528302 8.4528302,0 18.867925,0 c 10.415094,0 18.867924,8.4528302 18.867924,18.867925 0,10.415094 -8.45283,18.867924 -18.867924,18.867924 C 8.4528302,37.735849 0,29.283019 0,18.867925 Z"
       copytype="single_stretched"
       prop_scale="1"
       scale_y_rel="false"
       spacing="0"
       normal_offset="0"
       tang_offset="0"
       prop_units="false"
       vertical_pattern="false"
       hide_knot="false"
       fuse_tolerance="0" /><inkscape:path-effect
       effect="skeletal"
       id="path-effect1017"
       is_visible="true"
       lpeversion="1"
       pattern="M 0,18.867925 C 0,8.4528302 8.4528302,0 18.867925,0 c 10.415094,0 18.867924,8.4528302 18.867924,18.867925 0,10.415094 -8.45283,18.867924 -18.867924,18.867924 C 8.4528302,37.735849 0,29.283019 0,18.867925 Z"
       copytype="single_stretched"
       prop_scale="1"
       scale_y_rel="false"
       spacing="0"
       normal_offset="0"
       tang_offset="0"
       prop_units="false"
       vertical_pattern="false"
       hide_knot="false"
       fuse_tolerance="0" /><inkscape:path-effect
       effect="skeletal"
       id="path-effect1013"
       is_visible="true"
       lpeversion="1"
       pattern="M 0,18.867925 C 0,8.4528302 8.4528302,0 18.867925,0 c 10.415094,0 18.867924,8.4528302 18.867924,18.867925 0,10.415094 -8.45283,18.867924 -18.867924,18.867924 C 8.4528302,37.735849 0,29.283019 0,18.867925 Z"
       copytype="single_stretched"
       prop_scale="1"
       scale_y_rel="false"
       spacing="0"
       normal_offset="0"
       tang_offset="0"
       prop_units="false"
       vertical_pattern="false"
       hide_knot="false"
       fuse_tolerance="0" /><inkscape:path-effect
       effect="skeletal"
       id="path-effect1009"
       is_visible="true"
       lpeversion="1"
       pattern="M 0,18.867925 C 0,8.4528302 8.4528302,0 18.867925,0 c 10.415094,0 18.867924,8.4528302 18.867924,18.867925 0,10.415094 -8.45283,18.867924 -18.867924,18.867924 C 8.4528302,37.735849 0,29.283019 0,18.867925 Z"
       copytype="single_stretched"
       prop_scale="1"
       scale_y_rel="false"
       spacing="0"
       normal_offset="0"
       tang_offset="0"
       prop_units="false"
       vertical_pattern="false"
       hide_knot="false"
       fuse_tolerance="0" /><inkscape:path-effect
       effect="skeletal"
       id="path-effect972"
       is_visible="true"
       lpeversion="1"
       pattern="M 0,18.867925 C 0,8.4528302 8.4528302,0 18.867925,0 c 10.415094,0 18.867924,8.4528302 18.867924,18.867925 0,10.415094 -8.45283,18.867924 -18.867924,18.867924 C 8.4528302,37.735849 0,29.283019 0,18.867925 Z"
       copytype="single_stretched"
       prop_scale="1"
       scale_y_rel="false"
       spacing="0"
       normal_offset="0"
       tang_offset="0"
       prop_units="false"
       vertical_pattern="false"
       hide_knot="false"
       fuse_tolerance="0" /><symbol
       id="cog"
       viewBox="0 0 10000 10000"><title
         id="title1635">cog</title><path
         d="M 1024,896 C 1024,755 909,640 768,640 627,640 512,755 512,896 c 0,141 115,256 256,256 141,0 256,-115 256,-256 z m 512,-109 v 222 c 0,15 -12,33 -28,36 l -185,28 c -11,32 -23,62 -39,91 34,49 70,93 107,138 6,7 10,16 10,25 0,9 -3,16 -9,23 -24,32 -159,179 -193,179 -9,0 -18,-4 -26,-9 l -138,-108 c -29,15 -60,28 -91,38 -7,61 -13,126 -29,186 -4,16 -18,28 -36,28 H 657 c -18,0 -34,-13 -36,-30 l -28,-184 c -31,-10 -61,-22 -90,-37 l -141,107 c -7,6 -16,9 -25,9 -9,0 -18,-4 -25,-11 -53,-48 -123,-110 -165,-168 -5,-7 -7,-15 -7,-23 0,-9 3,-16 8,-23 34,-46 71,-90 105,-137 -17,-32 -31,-65 -41,-99 L 29,1041 C 12,1038 0,1022 0,1005 V 783 c 0,-15 12,-33 27,-36 l 186,-28 c 10,-32 23,-62 39,-92 -34,-48 -70,-93 -107,-138 -6,-7 -10,-15 -10,-24 0,-9 4,-16 9,-23 24,-33 159,-179 193,-179 9,0 18,4 26,10 l 138,107 c 29,-15 60,-28 91,-38 7,-61 13,-126 29,-186 4,-16 18,-28 36,-28 h 222 c 18,0 34,13 36,30 l 28,184 c 31,10 61,22 90,37 l 142,-107 c 6,-6 15,-9 24,-9 9,0 18,4 25,10 53,49 123,111 165,170 5,6 7,14 7,22 0,9 -3,16 -8,23 -34,46 -71,90 -105,137 17,32 31,65 41,98 l 183,28 c 17,3 29,19 29,36 z"
         id="path1637" /></symbol><symbol
       id="icon-android-delete"><title
         id="title83731">android-delete</title><path
         d="M 8,25.339 C 8,26.803 9.2,28 10.667,28 h 10.667 c 1.467,0 2.667,-1.197 2.667,-2.661 V 10 h -16 V 25.339 Z M 26,6 H 21 L 19.326,4 H 12.674 L 11,6 H 6 v 2 h 20 z"
         id="path83733" /></symbol></defs><g
     inkscape:label="Capa 1"
     inkscape:groupmode="layer"
     id="layer1"><path
       style="fill:#171d20;fill-opacity:1;stroke-width:3.72781"
       d="m 683.04868,421.76002 c -6.29655,-1.87364 -12.13939,-5.78181 -17.45697,-11.67666 -5.7978,-6.42721 -8.33877,-11.29548 -10.28076,-19.69698 -1.36097,-5.88788 -1.40208,-9.00152 -1.40208,-106.19818 0,-97.19667 0.0411,-100.3103 1.40208,-106.19819 0.77115,-3.33616 2.28072,-7.89221 3.35461,-10.12457 2.81233,-5.84616 10.99022,-14.70419 16.32478,-17.68249 8.79779,-4.91183 7.38505,-4.80774 65.00768,-4.78958 l 52.47839,0.0165 4.68264,1.82901 c 2.57546,1.00595 6.08396,2.91131 7.79666,4.23412 1.71269,1.32282 13.68684,14.1676 26.60919,28.54395 24.47793,27.23207 25.63706,28.80571 28.16711,38.2409 1.01074,3.76929 1.14218,11.82662 1.14218,69.99387 0,44.97893 0.23272,65.73424 0.73706,65.73424 1.85132,0 6.44193,-3.40294 9.10289,-6.74783 5.35245,-6.72808 5.04455,-0.0553 5.04455,-109.32043 0,-84.4673 -0.14396,-98.28241 -1.05985,-101.69497 -1.37941,-5.13932 -5.99264,-10.92429 -10.6081,-13.30233 l -3.57092,-1.83988 h -72.29611 -72.29612 l -3.54393,1.8569 c -1.94916,1.0213 -4.64309,3.13532 -5.98651,4.6978 l -2.44259,2.8409 h -10.49274 c -11.78021,0 -11.43831,0.21807 -9.10428,-5.80672 4.36062,-11.25592 14.9388,-21.19485 25.92922,-24.36225 6.27674,-1.80894 149.59715,-1.80894 155.87386,0 13.70625,3.95008 25.03831,17.0469 28.40099,32.82384 1.5684,7.35846 1.52273,202.42801 -0.0494,209.80636 -1.7818,8.36398 -4.92055,14.59158 -10.50902,20.8511 -5.49912,6.15946 -12.48805,10.54548 -19.42786,12.19225 l -3.70143,0.87833 v 3.73077 c 0,5.38664 -2.45523,15.20586 -5.0847,20.33529 -5.2034,10.1504 -16.40896,19.31899 -26.02136,21.29111 -2.38779,0.4899 -29.86615,0.76397 -73.35931,0.73168 -58.3885,-0.0434 -70.15386,-0.23384 -73.36013,-1.18792 z m 146.28456,-22.56453 c 1.94917,-1.00644 4.771,-3.33588 6.27076,-5.17655 5.45266,-6.69206 5.04655,0.10789 5.27118,-88.26401 0.11083,-43.56481 0.0343,-79.96272 -0.17044,-80.88427 -0.36173,-1.62966 -0.77479,-1.68518 -15.08589,-2.02801 -12.91838,-0.30947 -15.19359,-0.55912 -18.6439,-2.0457 -7.08418,-3.05225 -13.93321,-10.81193 -16.73005,-18.95447 -0.94877,-2.76215 -1.27554,-6.89517 -1.5036,-19.01794 l -0.29138,-15.48885 -49.72808,0.008 -49.72808,0.008 -3.57094,1.83988 c -4.61542,2.37804 -9.22869,8.16301 -10.60807,13.30233 -1.59676,5.94929 -1.59676,197.44064 0,203.38993 1.37938,5.13934 5.99265,10.9243 10.60807,13.30234 l 3.57094,1.83987 h 68.39778 68.39777 l 3.54393,-1.82988 z"
       id="path260" /><path
       id="rect1601-3-9"
       style="fill:#004164;fill-opacity:1;stroke:none;stroke-width:85.4005"
       d="m 224.82578,94 c -18.76524,0 -34.58956,12.38799 -40.3729,29.69751 5.50468,-2.6577 11.62873,-4.18155 18.12684,-4.18155 h 108.41714 c 23.68658,0 42.75709,19.7051 42.75709,44.18165 v 187.90968 c 0,5.08591 -0.86336,9.9481 -2.38033,14.48801 C 365.93466,359.06543 376,343.85717 376,326.09521 V 138.18164 C 376,113.7051 356.9295,94 333.24291,94 Z" /><path
       id="rect1601-2"
       style="fill:#004164;fill-opacity:1;stroke:none;stroke-width:85.4005"
       d="M 178.75322,141.72316 C 155.06665,141.72316 136,161.42827 136,185.90481 V 373.81836 C 136,398.29489 155.06665,418 178.75322,418 h 108.41714 c 23.68657,0 42.75709,-19.70511 42.75709,-44.18164 V 185.90481 c 0,-24.47654 -19.07052,-44.18165 -42.75709,-44.18165 z m 52.17795,103.34004 c 32.47786,0.003 53.74017,0.29623 55.26929,0.76804 4.34679,1.34127 8.38139,7.24877 8.38139,12.26923 0,3.70449 -2.72371,8.64609 -5.91219,10.72152 l -2.97541,1.93561 -54.2762,-0.0116 -54.27619,-0.0155 -2.76289,-1.73779 c -6.2155,-3.91234 -7.66087,-13.11 -2.987,-19.02254 4.05536,-5.13012 1.42938,-4.91171 59.5392,-4.90692 z m -55.19201,55.67508 h 55.79482 55.79481 l 2.51558,2.12956 c 3.6287,3.07412 5.25906,8.16985 4.14626,12.94805 -1.01127,4.34225 -4.41161,8.20153 -8.28093,9.39491 -1.80142,0.55557 -20.01963,0.82698 -54.92923,0.81846 -49.16711,-0.0126 -52.40507,-0.0973 -55.07222,-1.44299 -8.31097,-4.19305 -9.5911,-16.22472 -2.33782,-21.97057 z" /></g></svg>
