<?xml version="1.0" encoding="UTF-8" standalone="no"?>
<!-- Created with Inkscape (http://www.inkscape.org/) -->

<svg
   width="512"
   height="256"
   viewBox="0 0 1024 512"
   version="1.1"
   id="SVGRoot"
   sodipodi:docname="mode_light.svg"
   inkscape:version="1.2.1 (9c6d41e410, 2022-07-14)"
   inkscape:export-filename="mode_light.png"
   inkscape:export-xdpi="96"
   inkscape:export-ydpi="96"
   xml:space="preserve"
   xmlns:inkscape="http://www.inkscape.org/namespaces/inkscape"
   xmlns:sodipodi="http://sodipodi.sourceforge.net/DTD/sodipodi-0.dtd"
   xmlns="http://www.w3.org/2000/svg"
   xmlns:svg="http://www.w3.org/2000/svg"><sodipodi:namedview
     id="namedview14"
     pagecolor="#505050"
     bordercolor="#eeeeee"
     borderopacity="1"
     inkscape:pageshadow="0"
     inkscape:pageopacity="0"
     inkscape:pagecheckerboard="false"
     inkscape:document-units="px"
     showgrid="true"
     inkscape:zoom="2.02"
     inkscape:cx="234.65347"
     inkscape:cy="144.80198"
     inkscape:window-width="1920"
     inkscape:window-height="1008"
     inkscape:window-x="0"
     inkscape:window-y="48"
     inkscape:window-maximized="1"
     inkscape:current-layer="layer1"
     inkscape:showpageshadow="false"
     inkscape:deskcolor="#505050"><inkscape:grid
       type="xygrid"
       id="grid20"
       originx="-111.8571"
       originy="-115.71941" /></sodipodi:namedview><defs
     id="defs9"><inkscape:path-effect
       effect="skeletal"
       id="path-effect1021"
       is_visible="true"
       lpeversion="1"
       pattern="M 0,18.867925 C 0,8.4528302 8.4528302,0 18.867925,0 c 10.415094,0 18.867924,8.4528302 18.867924,18.867925 0,10.415094 -8.45283,18.867924 -18.867924,18.867924 C 8.4528302,37.735849 0,29.283019 0,18.867925 Z"
       copytype="single_stretched"
       prop_scale="1"
       scale_y_rel="false"
       spacing="0"
       normal_offset="0"
       tang_offset="0"
       prop_units="false"
       vertical_pattern="false"
       hide_knot="false"
       fuse_tolerance="0" /><inkscape:path-effect
       effect="skeletal"
       id="path-effect1017"
       is_visible="true"
       lpeversion="1"
       pattern="M 0,18.867925 C 0,8.4528302 8.4528302,0 18.867925,0 c 10.415094,0 18.867924,8.4528302 18.867924,18.867925 0,10.415094 -8.45283,18.867924 -18.867924,18.867924 C 8.4528302,37.735849 0,29.283019 0,18.867925 Z"
       copytype="single_stretched"
       prop_scale="1"
       scale_y_rel="false"
       spacing="0"
       normal_offset="0"
       tang_offset="0"
       prop_units="false"
       vertical_pattern="false"
       hide_knot="false"
       fuse_tolerance="0" /><inkscape:path-effect
       effect="skeletal"
       id="path-effect1013"
       is_visible="true"
       lpeversion="1"
       pattern="M 0,18.867925 C 0,8.4528302 8.4528302,0 18.867925,0 c 10.415094,0 18.867924,8.4528302 18.867924,18.867925 0,10.415094 -8.45283,18.867924 -18.867924,18.867924 C 8.4528302,37.735849 0,29.283019 0,18.867925 Z"
       copytype="single_stretched"
       prop_scale="1"
       scale_y_rel="false"
       spacing="0"
       normal_offset="0"
       tang_offset="0"
       prop_units="false"
       vertical_pattern="false"
       hide_knot="false"
       fuse_tolerance="0" /><inkscape:path-effect
       effect="skeletal"
       id="path-effect1009"
       is_visible="true"
       lpeversion="1"
       pattern="M 0,18.867925 C 0,8.4528302 8.4528302,0 18.867925,0 c 10.415094,0 18.867924,8.4528302 18.867924,18.867925 0,10.415094 -8.45283,18.867924 -18.867924,18.867924 C 8.4528302,37.735849 0,29.283019 0,18.867925 Z"
       copytype="single_stretched"
       prop_scale="1"
       scale_y_rel="false"
       spacing="0"
       normal_offset="0"
       tang_offset="0"
       prop_units="false"
       vertical_pattern="false"
       hide_knot="false"
       fuse_tolerance="0" /><inkscape:path-effect
       effect="skeletal"
       id="path-effect972"
       is_visible="true"
       lpeversion="1"
       pattern="M 0,18.867925 C 0,8.4528302 8.4528302,0 18.867925,0 c 10.415094,0 18.867924,8.4528302 18.867924,18.867925 0,10.415094 -8.45283,18.867924 -18.867924,18.867924 C 8.4528302,37.735849 0,29.283019 0,18.867925 Z"
       copytype="single_stretched"
       prop_scale="1"
       scale_y_rel="false"
       spacing="0"
       normal_offset="0"
       tang_offset="0"
       prop_units="false"
       vertical_pattern="false"
       hide_knot="false"
       fuse_tolerance="0" /><symbol
       id="cog"
       viewBox="0 0 10000 10000"><title
         id="title1635">cog</title><path
         d="M 1024,896 C 1024,755 909,640 768,640 627,640 512,755 512,896 c 0,141 115,256 256,256 141,0 256,-115 256,-256 z m 512,-109 v 222 c 0,15 -12,33 -28,36 l -185,28 c -11,32 -23,62 -39,91 34,49 70,93 107,138 6,7 10,16 10,25 0,9 -3,16 -9,23 -24,32 -159,179 -193,179 -9,0 -18,-4 -26,-9 l -138,-108 c -29,15 -60,28 -91,38 -7,61 -13,126 -29,186 -4,16 -18,28 -36,28 H 657 c -18,0 -34,-13 -36,-30 l -28,-184 c -31,-10 -61,-22 -90,-37 l -141,107 c -7,6 -16,9 -25,9 -9,0 -18,-4 -25,-11 -53,-48 -123,-110 -165,-168 -5,-7 -7,-15 -7,-23 0,-9 3,-16 8,-23 34,-46 71,-90 105,-137 -17,-32 -31,-65 -41,-99 L 29,1041 C 12,1038 0,1022 0,1005 V 783 c 0,-15 12,-33 27,-36 l 186,-28 c 10,-32 23,-62 39,-92 -34,-48 -70,-93 -107,-138 -6,-7 -10,-15 -10,-24 0,-9 4,-16 9,-23 24,-33 159,-179 193,-179 9,0 18,4 26,10 l 138,107 c 29,-15 60,-28 91,-38 7,-61 13,-126 29,-186 4,-16 18,-28 36,-28 h 222 c 18,0 34,13 36,30 l 28,184 c 31,10 61,22 90,37 l 142,-107 c 6,-6 15,-9 24,-9 9,0 18,4 25,10 53,49 123,111 165,170 5,6 7,14 7,22 0,9 -3,16 -8,23 -34,46 -71,90 -105,137 17,32 31,65 41,98 l 183,28 c 17,3 29,19 29,36 z"
         id="path1637" /></symbol><symbol
       id="icon-android-delete"><title
         id="title83731">android-delete</title><path
         d="M 8,25.339 C 8,26.803 9.2,28 10.667,28 h 10.667 c 1.467,0 2.667,-1.197 2.667,-2.661 V 10 h -16 V 25.339 Z M 26,6 H 21 L 19.326,4 H 12.674 L 11,6 H 6 v 2 h 20 z"
         id="path83733" /></symbol><filter
       inkscape:collect="always"
       style="color-interpolation-filters:sRGB"
       id="filter980"
       x="-0.034909094"
       y="-0.076800001"
       width="1.0698182"
       height="1.1536"><feGaussianBlur
         inkscape:collect="always"
         stdDeviation="12.8"
         id="feGaussianBlur982" /></filter></defs><g
     inkscape:label="Capa 1"
     inkscape:groupmode="layer"
     id="layer1"><rect
       style="fill:#000000;fill-opacity:0.7;stroke-width:12.685;filter:url(#filter980)"
       id="rect193-3"
       width="879.99994"
       height="400"
       x="72"
       y="56"
       rx="139.17924"
       ry="136.01576" /><rect
       style="fill:#f0ffff;fill-opacity:1;stroke-width:12.685"
       id="rect193"
       width="880"
       height="400"
       x="72"
       y="56"
       rx="139.17926"
       ry="136.01576" /><rect
       style="fill:#c8ffff;fill-opacity:1;stroke-width:6.84175"
       id="rect193-6"
       width="320"
       height="320"
       x="112.40002"
       y="96"
       rx="97.343307"
       ry="108.81261" /><path
       style="fill:#004164;fill-opacity:1;stroke-width:3.19251"
       d="m 276.79594,375.54988 c 39.49993,-2.18764 74.58628,-22.21028 95.71043,-54.61885 5.81105,-8.91528 13.0475,-24.98432 15.17832,-33.70452 5.4923,-22.47671 5.4923,-42.01193 0,-64.48863 -2.13082,-8.7202 -9.36727,-24.78924 -15.17832,-33.70453 -18.98152,-29.12136 -49.45388,-48.46818 -84.21741,-53.46941 -9.10778,-1.31028 -24.7176,-1.32352 -34.47907,-0.0293 -36.55109,4.84632 -68.48782,24.11112 -86.87556,52.40488 -18.7663,28.87627 -21.32205,64.03576 -6.44878,88.71602 7.28031,12.08071 19.75931,22.37114 33.02269,27.23114 24.44204,5.28493 84.09158,10.1535 62.76091,39.36595 -6.20252,7.56935 -6.12483,17.62422 0.19318,25.00541 4.95513,5.78895 10.64258,7.82852 20.33361,7.29179 z m 59.83754,-122.41062 c -4.11392,-2.08809 -7.86265,-5.84089 -9.83555,-9.84623 -2.07912,-4.221 -2.11286,-13.24831 -0.064,-17.10778 5.79888,-10.9231 18.99957,-14.9572 28.91682,-8.83692 5.84364,3.6063 10.21602,11.1052 10.21602,17.52108 0,8.46547 -7.24731,17.72855 -15.53599,19.85721 -3.81231,0.97905 -10.06977,0.25388 -13.69737,-1.58736 z m -148.03371,0.0471 c -4.3216,-2.18992 -8.68635,-7.03948 -10.35874,-11.50935 -3.29237,-8.79963 0.0476,-18.50144 8.207,-23.83923 4.09439,-2.67851 7.50953,-3.59996 12.22049,-3.29723 7.24138,0.46533 13.88977,5.03883 17.25322,11.86867 2.16442,4.39508 2.1428,12.61717 -0.0444,16.8967 -2.64461,5.17442 -7.81875,9.56968 -13.46675,11.43956 -2.99325,0.99097 -10.43669,0.15067 -13.81079,-1.55912 z m 107.8852,-53.78861 c -12.6687,-6.15347 -15.8349,-22.08238 -6.38441,-32.11949 8.13057,-8.63526 20.6252,-8.89045 29.09464,-0.59424 8.09992,7.93426 8.16719,20.49215 0.1527,28.50663 -6.34581,6.34583 -15.13138,7.96249 -22.86293,4.2071 z m -67.70945,-0.32059 c -4.33996,-2.11642 -7.37963,-5.22538 -9.7563,-9.97873 -2.26764,-4.53526 -2.17915,-11.98172 0.19745,-16.61648 5.70656,-11.12878 19.15593,-15.17616 29.16597,-8.77705 10.25697,6.55697 12.79661,19.94475 5.57587,29.39332 -6.19501,8.10637 -16.03148,10.44174 -25.18299,5.97894 z"
       id="path2635"
       sodipodi:nodetypes="sssssscssccssssscsssssssssssssssssssssssss" /></g></svg>
