<?xml version="1.0" encoding="UTF-8" standalone="no"?>
<!-- Created with Inkscape (http://www.inkscape.org/) -->

<svg
   width="500"
   height="100"
   viewBox="0 0 1000 200"
   version="1.1"
   id="SVGRoot"
   sodipodi:docname="stars_light.svg"
   inkscape:version="1.2.1 (9c6d41e410, 2022-07-14)"
   inkscape:export-filename="stars_light.png"
   inkscape:export-xdpi="96"
   inkscape:export-ydpi="96"
   xmlns:inkscape="http://www.inkscape.org/namespaces/inkscape"
   xmlns:sodipodi="http://sodipodi.sourceforge.net/DTD/sodipodi-0.dtd"
   xmlns="http://www.w3.org/2000/svg"
   xmlns:svg="http://www.w3.org/2000/svg">
  <sodipodi:namedview
     id="namedview14"
     pagecolor="#505050"
     bordercolor="#eeeeee"
     borderopacity="1"
     inkscape:pageshadow="0"
     inkscape:pageopacity="0"
     inkscape:pagecheckerboard="0"
     inkscape:document-units="px"
     showgrid="true"
     inkscape:zoom="2.02"
     inkscape:cx="192.57426"
     inkscape:cy="139.35644"
     inkscape:window-width="1920"
     inkscape:window-height="1008"
     inkscape:window-x="0"
     inkscape:window-y="48"
     inkscape:window-maximized="1"
     inkscape:current-layer="layer1"
     inkscape:showpageshadow="0"
     inkscape:deskcolor="#505050">
    <inkscape:grid
       type="xygrid"
       id="grid20"
       originx="0"
       originy="0" />
  </sodipodi:namedview>
  <defs
     id="defs9">
    <inkscape:path-effect
       effect="skeletal"
       id="path-effect1021"
       is_visible="true"
       lpeversion="1"
       pattern="M 0,18.867925 C 0,8.4528302 8.4528302,0 18.867925,0 c 10.415094,0 18.867924,8.4528302 18.867924,18.867925 0,10.415094 -8.45283,18.867924 -18.867924,18.867924 C 8.4528302,37.735849 0,29.283019 0,18.867925 Z"
       copytype="single_stretched"
       prop_scale="1"
       scale_y_rel="false"
       spacing="0"
       normal_offset="0"
       tang_offset="0"
       prop_units="false"
       vertical_pattern="false"
       hide_knot="false"
       fuse_tolerance="0" />
    <inkscape:path-effect
       effect="skeletal"
       id="path-effect1017"
       is_visible="true"
       lpeversion="1"
       pattern="M 0,18.867925 C 0,8.4528302 8.4528302,0 18.867925,0 c 10.415094,0 18.867924,8.4528302 18.867924,18.867925 0,10.415094 -8.45283,18.867924 -18.867924,18.867924 C 8.4528302,37.735849 0,29.283019 0,18.867925 Z"
       copytype="single_stretched"
       prop_scale="1"
       scale_y_rel="false"
       spacing="0"
       normal_offset="0"
       tang_offset="0"
       prop_units="false"
       vertical_pattern="false"
       hide_knot="false"
       fuse_tolerance="0" />
    <inkscape:path-effect
       effect="skeletal"
       id="path-effect1013"
       is_visible="true"
       lpeversion="1"
       pattern="M 0,18.867925 C 0,8.4528302 8.4528302,0 18.867925,0 c 10.415094,0 18.867924,8.4528302 18.867924,18.867925 0,10.415094 -8.45283,18.867924 -18.867924,18.867924 C 8.4528302,37.735849 0,29.283019 0,18.867925 Z"
       copytype="single_stretched"
       prop_scale="1"
       scale_y_rel="false"
       spacing="0"
       normal_offset="0"
       tang_offset="0"
       prop_units="false"
       vertical_pattern="false"
       hide_knot="false"
       fuse_tolerance="0" />
    <inkscape:path-effect
       effect="skeletal"
       id="path-effect1009"
       is_visible="true"
       lpeversion="1"
       pattern="M 0,18.867925 C 0,8.4528302 8.4528302,0 18.867925,0 c 10.415094,0 18.867924,8.4528302 18.867924,18.867925 0,10.415094 -8.45283,18.867924 -18.867924,18.867924 C 8.4528302,37.735849 0,29.283019 0,18.867925 Z"
       copytype="single_stretched"
       prop_scale="1"
       scale_y_rel="false"
       spacing="0"
       normal_offset="0"
       tang_offset="0"
       prop_units="false"
       vertical_pattern="false"
       hide_knot="false"
       fuse_tolerance="0" />
    <inkscape:path-effect
       effect="skeletal"
       id="path-effect972"
       is_visible="true"
       lpeversion="1"
       pattern="M 0,18.867925 C 0,8.4528302 8.4528302,0 18.867925,0 c 10.415094,0 18.867924,8.4528302 18.867924,18.867925 0,10.415094 -8.45283,18.867924 -18.867924,18.867924 C 8.4528302,37.735849 0,29.283019 0,18.867925 Z"
       copytype="single_stretched"
       prop_scale="1"
       scale_y_rel="false"
       spacing="0"
       normal_offset="0"
       tang_offset="0"
       prop_units="false"
       vertical_pattern="false"
       hide_knot="false"
       fuse_tolerance="0" />
  </defs>
  <g
     inkscape:label="Capa 1"
     inkscape:groupmode="layer"
     id="layer1">
    <g
       id="g1629"
       transform="matrix(2.016367,0,0,2.016367,6.9306931,8.9108911)"
       style="fill:#004164;fill-opacity:1">
      <path
         sodipodi:type="star"
         style="fill:#004164;fill-opacity:1;stroke-width:30"
         id="path235"
         inkscape:flatsided="false"
         sodipodi:sides="5"
         sodipodi:cx="88.118813"
         sodipodi:cy="71.287125"
         sodipodi:r1="46.96452"
         sodipodi:r2="23.951904"
         sodipodi:arg1="0.96525166"
         sodipodi:arg2="1.5935702"
         inkscape:rounded="0.14"
         inkscape:randomized="0"
         d="M 114.85149,109.90099 C 111.28642,112.36911 91.908304,95.331558 87.573382,95.232818 83.23846,95.134078 63.104687,111.27163 59.655699,108.64375 56.206711,106.01586 66.422215,82.321284 65.176558,78.168016 63.9309,74.014747 42.361495,59.85317 43.794967,55.760926 45.22844,51.668682 70.920086,54.062177 74.48515,51.594056 78.050214,49.125935 84.853361,24.236044 89.188284,24.334784 c 4.334922,0.09874 9.997728,25.272578 13.446716,27.900464 3.44899,2.627886 29.22297,1.406664 30.46863,5.559933 1.24565,4.153268 -20.94619,17.318061 -22.37966,21.410305 -1.43347,4.092244 7.69258,28.227374 4.12752,30.695504 z"
         inkscape:transform-center-x="-0.32369016"
         inkscape:transform-center-y="-4.2463421"
         transform="matrix(1.0064013,0,0,1.0488181,-44.006505,-25.522453)" />
      <path
         sodipodi:type="star"
         style="fill:#004164;fill-opacity:1;stroke-width:30"
         id="path235-6"
         inkscape:flatsided="false"
         sodipodi:sides="5"
         sodipodi:cx="88.118813"
         sodipodi:cy="71.287125"
         sodipodi:r1="46.96452"
         sodipodi:r2="23.951904"
         sodipodi:arg1="0.96525166"
         sodipodi:arg2="1.5935702"
         inkscape:rounded="0.14"
         inkscape:randomized="0"
         d="M 114.85149,109.90099 C 111.28642,112.36911 91.908304,95.331558 87.573382,95.232818 83.23846,95.134078 63.104687,111.27163 59.655699,108.64375 56.206711,106.01586 66.422215,82.321284 65.176558,78.168016 63.9309,74.014747 42.361495,59.85317 43.794967,55.760926 45.22844,51.668682 70.920086,54.062177 74.48515,51.594056 78.050214,49.125935 84.853361,24.236044 89.188284,24.334784 c 4.334922,0.09874 9.997728,25.272578 13.446716,27.900464 3.44899,2.627886 29.22297,1.406664 30.46863,5.559933 1.24565,4.153268 -20.94619,17.318061 -22.37966,21.410305 -1.43347,4.092244 7.69258,28.227374 4.12752,30.695504 z"
         inkscape:transform-center-x="-0.32369016"
         inkscape:transform-center-y="-4.2463421"
         transform="matrix(1.0064013,0,0,1.0488181,55.993495,-25.522454)" />
      <path
         sodipodi:type="star"
         style="fill:#004164;fill-opacity:1;stroke-width:30"
         id="path235-6-7"
         inkscape:flatsided="false"
         sodipodi:sides="5"
         sodipodi:cx="88.118813"
         sodipodi:cy="71.287125"
         sodipodi:r1="46.96452"
         sodipodi:r2="23.951904"
         sodipodi:arg1="0.96525166"
         sodipodi:arg2="1.5935702"
         inkscape:rounded="0.14"
         inkscape:randomized="0"
         d="M 114.85149,109.90099 C 111.28642,112.36911 91.908304,95.331558 87.573382,95.232818 83.23846,95.134078 63.104687,111.27163 59.655699,108.64375 56.206711,106.01586 66.422215,82.321284 65.176558,78.168016 63.9309,74.014747 42.361495,59.85317 43.794967,55.760926 45.22844,51.668682 70.920086,54.062177 74.48515,51.594056 78.050214,49.125935 84.853361,24.236044 89.188284,24.334784 c 4.334922,0.09874 9.997728,25.272578 13.446716,27.900464 3.44899,2.627886 29.22297,1.406664 30.46863,5.559933 1.24565,4.153268 -20.94619,17.318061 -22.37966,21.410305 -1.43347,4.092244 7.69258,28.227374 4.12752,30.695504 z"
         inkscape:transform-center-x="-0.32369016"
         inkscape:transform-center-y="-4.2463421"
         transform="matrix(1.0064013,0,0,1.0488181,155.99349,-25.522454)" />
      <path
         sodipodi:type="star"
         style="fill:#004164;fill-opacity:1;stroke-width:30"
         id="path235-6-5"
         inkscape:flatsided="false"
         sodipodi:sides="5"
         sodipodi:cx="88.118813"
         sodipodi:cy="71.287125"
         sodipodi:r1="46.96452"
         sodipodi:r2="23.951904"
         sodipodi:arg1="0.96525166"
         sodipodi:arg2="1.5935702"
         inkscape:rounded="0.14"
         inkscape:randomized="0"
         d="M 114.85149,109.90099 C 111.28642,112.36911 91.908304,95.331558 87.573382,95.232818 83.23846,95.134078 63.104687,111.27163 59.655699,108.64375 56.206711,106.01586 66.422215,82.321284 65.176558,78.168016 63.9309,74.014747 42.361495,59.85317 43.794967,55.760926 45.22844,51.668682 70.920086,54.062177 74.48515,51.594056 78.050214,49.125935 84.853361,24.236044 89.188284,24.334784 c 4.334922,0.09874 9.997728,25.272578 13.446716,27.900464 3.44899,2.627886 29.22297,1.406664 30.46863,5.559933 1.24565,4.153268 -20.94619,17.318061 -22.37966,21.410305 -1.43347,4.092244 7.69258,28.227374 4.12752,30.695504 z"
         inkscape:transform-center-x="-0.32369016"
         inkscape:transform-center-y="-4.2463421"
         transform="matrix(1.0064013,0,0,1.0488181,255.99349,-25.522454)" />
      <path
         sodipodi:type="star"
         style="fill:#004164;fill-opacity:1;stroke-width:30"
         id="path235-6-5-3"
         inkscape:flatsided="false"
         sodipodi:sides="5"
         sodipodi:cx="88.118813"
         sodipodi:cy="71.287125"
         sodipodi:r1="46.96452"
         sodipodi:r2="23.951904"
         sodipodi:arg1="0.96525166"
         sodipodi:arg2="1.5935702"
         inkscape:rounded="0.14"
         inkscape:randomized="0"
         d="M 114.85149,109.90099 C 111.28642,112.36911 91.908304,95.331558 87.573382,95.232818 83.23846,95.134078 63.104687,111.27163 59.655699,108.64375 56.206711,106.01586 66.422215,82.321284 65.176558,78.168016 63.9309,74.014747 42.361495,59.85317 43.794967,55.760926 45.22844,51.668682 70.920086,54.062177 74.48515,51.594056 78.050214,49.125935 84.853361,24.236044 89.188284,24.334784 c 4.334922,0.09874 9.997728,25.272578 13.446716,27.900464 3.44899,2.627886 29.22297,1.406664 30.46863,5.559933 1.24565,4.153268 -20.94619,17.318061 -22.37966,21.410305 -1.43347,4.092244 7.69258,28.227374 4.12752,30.695504 z"
         inkscape:transform-center-x="-0.32369016"
         inkscape:transform-center-y="-4.2463421"
         transform="matrix(1.0064013,0,0,1.0488181,355.99349,-25.522454)" />
    </g>
  </g>
</svg>
